<svg xmlns="http://www.w3.org/2000/svg" width="29.031" height="33" viewBox="0 0 29.031 33" id="svg-1">
  <defs id="defs-2">
    <style id="style-3">
	.cls-1 { fill-rule: evenodd; }
</style>
  </defs>
  <path id="adress2.svg" class="cls-1" d="M511.409,584.672a1.456,1.456,0,0,1-1.836,0c-1.39-1.139-13.594-11.348-13.594-18.715,0-7.688,6.511-13.942,14.512-13.942S525,558.269,525,565.957C525,573.324,512.8,583.533,511.409,584.672Zm-0.918-29.937a11.473,11.473,0,0,0-11.681,11.222c0,4.777,7.727,12.449,11.681,15.87,3.954-3.421,11.682-11.093,11.682-15.87A11.471,11.471,0,0,0,510.491,554.735Zm0,18.023a6.806,6.806,0,1,1,7.078-6.8A6.953,6.953,0,0,1,510.491,572.758Zm0-10.881a4.084,4.084,0,1,0,4.247,4.08A4.17,4.17,0,0,0,510.491,561.877Z" transform="translate(-495.969 -552)" fill="#f5297b" fill-opacity="1" type="solidColor"/>
</svg>