<svg xmlns="http://www.w3.org/2000/svg" width="41.844" height="45.813" viewBox="0 0 41.844 45.813">
  <defs>
    <style>
      .cls-1 {
        fill: #212121;
        fill-rule: evenodd;
      }
    </style>
  </defs>
  <path id="_1.svg" data-name="1.svg" class="cls-1" d="M86.782,219.13a13.109,13.109,0,0,1-2.552,3.628,1,1,0,0,1-.315.2c-0.624.244-1.745,0.648-2.872,1.053-0.952.343-2.065,0.744-2.723,1a8.08,8.08,0,0,1-5.986,7.908,0.99,0.99,0,1,1-.564-1.9,6.106,6.106,0,0,0,4.558-5.933c-1.318-.367-2.885-0.857-4.15-1.308a0.988,0.988,0,0,1-.6-1.266,1,1,0,0,1,1.276-.6c1.353,0.483,3.081,1.021,4.419,1.379,0.566-.228,1.611-0.606,3.092-1.14,1-.36,2-0.718,2.631-0.961a11.9,11.9,0,0,0,1.9-2.693,2.978,2.978,0,0,0-.05-1.283c-0.254-1.538-2.89-8.918-4.311-10a56.858,56.858,0,0,0-10.324-4.227,1,1,0,0,1-.782-0.677c-2.015-6.325-5.522-11.332-8.935-12.755-1.6-.667-2.021-0.433-2.025-0.431a1.023,1.023,0,0,1-1.289.613,0.969,0.969,0,0,1-.605-1.247,2.017,2.017,0,0,1,1.109-1.187c0.858-.369,2-0.236,3.582.426,4.613,1.925,8.091,8.1,9.887,13.445a58.737,58.737,0,0,1,10.593,4.467c2.235,1.7,4.888,10.158,5.068,11.251A4.7,4.7,0,0,1,86.782,219.13ZM67.919,202.672a1,1,0,0,1-1.938.467c-0.478-1.952-5.056-8.258-8.379-10.047-3.02-1.626-5.28-1.349-5.858-.65-0.582,1.256,2.884,9.119,4.643,11.053,1.625,1.786,3.6,3.753,4.22,4.254a0.986,0.986,0,0,1,.359.882,14.951,14.951,0,0,1-1.534,4.6,1,1,0,0,1-1.366.3,14.064,14.064,0,0,0-11.582-.936,1,1,0,0,1-1.292-.562,0.988,0.988,0,0,1,.566-1.282,16.466,16.466,0,0,1,12.4.567,17.134,17.134,0,0,0,.744-2.428c-0.957-.875-2.647-2.593-3.992-4.071-1.541-1.693-6.633-11.3-4.706-13.635,1.191-1.445,4.313-2.009,8.351.165C62.244,193.339,67.3,200.143,67.919,202.672Z" transform="translate(-45.125 -187.125)"/>
</svg>
