<svg xmlns="http://www.w3.org/2000/svg" width="46.251" height="44.969" viewBox="0 0 46.251 44.969">
  <defs>
    <style>
      .cls-1 {
        fill: #212121;
        fill-rule: evenodd;
      }
    </style>
  </defs>
  <path id="_4.svg" data-name="4.svg" class="cls-1" d="M109.325,111.621a2.339,2.339,0,0,1-.91,1.115,4.884,4.884,0,0,1-.666,1.748,0.993,0.993,0,0,1-.865.507,0.978,0.978,0,0,1-.493-0.132,1.012,1.012,0,0,1-.371-1.373,4.857,4.857,0,0,0,.348-0.723,7.941,7.941,0,0,1-2.481-1.55,1.014,1.014,0,0,1-.04-1.423,0.984,0.984,0,0,1,1.406-.039,4.9,4.9,0,0,0,2.169,1.222,4.471,4.471,0,0,0-.18-3.7c-1.045-2.378-3.847-6.032-5.93-8.439a1.019,1.019,0,0,1-.238-0.538,14.083,14.083,0,0,0-5-9.475,19.521,19.521,0,0,0-6.694-3.541,1,1,0,0,1-.65-0.6C88.356,83.724,86.87,83.019,85.2,83c-0.791-.008-3.532.163-4.578,2.7a1,1,0,0,1-.57.555,0.979,0.979,0,0,1-.791-0.041,5.234,5.234,0,0,0-5.248.013,4.868,4.868,0,0,0-2.273,4.127,1.011,1.011,0,0,1-.349.755,0.991,0.991,0,0,1-.793.23A4.12,4.12,0,0,0,66.605,93.2c-1.092,1.511-1.506,3.6-.943,4.755a1.012,1.012,0,0,1-.454,1.347,0.991,0.991,0,0,1-1.333-.459c-0.889-1.827-.417-4.7,1.122-6.831a6.155,6.155,0,0,1,4.835-2.725,6.821,6.821,0,0,1,3.136-4.771,7.043,7.043,0,0,1,6.275-.493,6.844,6.844,0,0,1,5.972-3.033,5.921,5.921,0,0,1,5.138,2.482,21.616,21.616,0,0,1,6.95,3.765,15.975,15.975,0,0,1,5.706,10.5,43.82,43.82,0,0,1,6.052,8.716A6.753,6.753,0,0,1,109.325,111.621ZM72.128,94.8a0.988,0.988,0,0,1,1.385-.251,1.013,1.013,0,0,1,.248,1.4,12.452,12.452,0,0,0-1.942,5.592c-0.5,4.474,1.115,8.486,3.527,8.762s4.874-3.269,5.376-7.742a12.534,12.534,0,0,0-.658-5.891,1.01,1.01,0,0,1,.552-1.309,0.993,0.993,0,0,1,1.295.558,14.573,14.573,0,0,1,.789,6.867c-0.615,5.487-3.675,9.545-7.087,9.545a4.263,4.263,0,0,1-.491-0.028c-3.6-.413-5.925-5.239-5.282-10.988A14.506,14.506,0,0,1,72.128,94.8Zm17,22.919c3.124-.406,9.541.561,10.964,0.823,0.836,0.156,2.23-.639,3.338-1.462a29.322,29.322,0,0,1-5.3-1.706,1.011,1.011,0,0,1-.387-1.368,0.989,0.989,0,0,1,1.353-.391,34.165,34.165,0,0,0,6.654,1.9,1,1,0,0,1,.769.656,1.013,1.013,0,0,1-.189,1c-0.529.612-4.01,3.828-6.6,3.352-1.832-.337-7.692-1.151-10.353-0.807-2.263.3-4.323,3.234-5.4,5.661a0.993,0.993,0,0,1-.909.595,0.98,0.98,0,0,1-.406-0.088,1.011,1.011,0,0,1-.5-1.33C82.821,123.081,85.257,118.228,89.127,117.723Z" transform="translate(-63.438 -81)"/>
</svg>
