<svg xmlns="http://www.w3.org/2000/svg" width="45.25" height="44.937" viewBox="0 0 45.25 44.937">
  <defs>
    <style>
      .cls-1 {
        fill: #212121;
        fill-rule: evenodd;
      }
    </style>
  </defs>
  <path id="_7.svg" data-name="7.svg" class="cls-1" d="M125.893,169.2c-3.142,6.169-5.4,8.8-7.553,8.8-1.54,0-6.553-.143-9.276-1.9-6.062,1.721-16.263.833-19.943-.746-0.978.685-3.142,2.355-4.5,3.424a1.017,1.017,0,0,1-1.419-.159,0.99,0.99,0,0,1,.161-1.4c0.722-.569,4.367-3.427,5.2-3.883a1.018,1.018,0,0,1,1,.009c2.414,1.388,13.36,2.637,19.377.709a1.016,1.016,0,0,1,.947.173c1.641,1.31,5.582,1.775,8.457,1.775,0.549,0,2.208-.75,5.749-7.7,0.354-.7-0.242-1.4-1.688-2.838-0.247-.245-0.5-0.5-0.751-0.758-0.953-.989-2.214-2.115-3.55-3.308-2.442-2.179-4.748-4.238-5.69-5.877a0.987,0.987,0,0,1-.13-0.534c0.014-.365.042-0.716,0.067-1.055,0.177-2.3.284-3.695-4.548-6a1.035,1.035,0,0,1-.182-0.112c-1.264-.972-1.855-2.1-1.666-3.164,0.2-1.132,1.205-2,2.984-2.569,4.881-1.571,8.322-3.535,9.728-5.485a64.142,64.142,0,0,1-11.821,2.249l-1.511.183c-4.232.519-5.268,2-6.365,3.572a1.021,1.021,0,0,1-1.405.254,0.992,0.992,0,0,1-.257-1.39c1.449-2.073,3.034-3.836,7.778-4.418l1.517-.184a62.64,62.64,0,0,0,13.457-2.774,1.021,1.021,0,0,1,.942.177,0.994,0.994,0,0,1,.368.876c-0.441,4.308-6.663,7.185-11.8,8.839-1.127.363-1.577,0.773-1.62,1.015a1.71,1.71,0,0,0,.837,1.18c5.567,2.674,5.825,4.771,5.584,7.9-0.017.223-.035,0.451-0.048,0.686a36.541,36.541,0,0,0,5.14,5.146c1.365,1.219,2.654,2.369,3.659,3.413,0.241,0.25.484,0.492,0.721,0.727C125.289,165.505,126.939,167.147,125.893,169.2ZM97.27,149.026a1.012,1.012,0,0,1-1.145-.845c-0.966-6.573-5.477-10.3-8.6-11.03a9.553,9.553,0,0,0,3.137,12.089,0.991,0.991,0,0,1,.191,1.4,1.017,1.017,0,0,1-1.416.189,12.276,12.276,0,0,1-3.9-4.79H81.97a1,1,0,1,1,0-2h2.886a11.059,11.059,0,0,1,1.329-8.552,1.011,1.011,0,0,1,.947-0.432c4.45,0.489,9.918,5.535,10.991,12.835A1,1,0,0,1,97.27,149.026Z" transform="translate(-80.969 -134.063)"/>
</svg>
