<svg xmlns="http://www.w3.org/2000/svg" width="41.218" height="46.813" viewBox="0 0 41.218 46.813">
  <defs>
    <style>
      .cls-1 {
        fill: #212121;
        fill-rule: evenodd;
      }
    </style>
  </defs>
  <path id="_2.svg" data-name="2.svg" class="cls-1" d="M248.581,175.6a2.352,2.352,0,0,1-2.328,1.461,33.666,33.666,0,0,0-7.4.382l-0.03.093c-0.565,1.718-1.148,3.493-1.029,4.388a8.425,8.425,0,0,0,.629,1.583c0.827,1.79,1.96,4.24.671,6.127a2.959,2.959,0,0,1-2.445,1.246,4.426,4.426,0,0,1-3.516-1.6c-1.157-1.508-1.257-3.96-1.354-6.33-0.037-.9-0.08-1.807-0.178-2.613a17.336,17.336,0,0,0-1.2,1.734c-1.382,4.477,2.677,19.249,4.36,24.56a1.013,1.013,0,0,1-.64,1.27,0.954,0.954,0,0,1-.3.05,1,1,0,0,1-.945-0.7c-0.255-.805-6.22-19.772-4.346-25.836a21.349,21.349,0,0,1,2.409-3.469c-0.654-1.955-.349-4.4-0.044-6.771,0.252-1.953.536-4.166-.052-4.952-0.9-1.2-3.714-2.615-7.342-2.982-3.889-.388-7.426.551-9.7,2.589-5.736,5.139-4.921,14.732-2.127,19.681a21.2,21.2,0,0,1,1.605,14.257,1,1,0,0,1-.951.722,0.966,0.966,0,0,1-.283-0.042,1.014,1.014,0,0,1-.669-1.256,19.146,19.146,0,0,0-1.423-12.675c-3.132-5.549-3.993-16.352,2.536-22.2,3.68-3.3,8.6-3.345,11.209-3.083,3.82,0.386,7.326,1.9,8.724,3.768,1.083,1.446.772,3.87,0.442,6.437-0.287,2.23-.612,4.758.1,6.255a14.071,14.071,0,0,1,.8,5.174c0.081,1.956.171,4.174,0.935,5.171a2.472,2.472,0,0,0,1.9.826,1.061,1.061,0,0,0,.87-0.382c0.635-.928-0.216-2.769-0.838-4.113a8.512,8.512,0,0,1-.8-2.172c-0.181-1.36.418-3.186,1.114-5.3a20.821,20.821,0,0,0,1.33-5.674,6.579,6.579,0,0,0-1.652-4.778,2.933,2.933,0,0,0-2.151-.9,0.981,0.981,0,0,1-1.035-.965,1,1,0,0,1,.947-1.053,4.859,4.859,0,0,1,3.612,1.462,7.61,7.61,0,0,1,2,3.912,15.374,15.374,0,0,1,8.045,4.043A2.37,2.37,0,0,1,248.581,175.6Zm-1.9-1.186A13.086,13.086,0,0,0,240.238,171c0,0.076.017,0.143,0.017,0.219a15.24,15.24,0,0,1-.737,4.081,36.14,36.14,0,0,1,6.853-.257,0.359,0.359,0,0,0,.386-0.243A0.323,0.323,0,0,0,246.68,174.41Z" transform="translate(-207.563 -161.125)"/>
</svg>
