<svg xmlns="http://www.w3.org/2000/svg" width="43.219" height="46.938" viewBox="0 0 43.219 46.938">
  <defs>
    <style>
      .cls-1 {
        fill: #212121;
        fill-rule: evenodd;
      }
    </style>
  </defs>
  <path id="_5.svg" data-name="5.svg" class="cls-1" d="M170.809,109.864a1.049,1.049,0,0,1-.229.122,16.762,16.762,0,0,1-5.893,1.034c-0.406,0-.812-0.025-1.218-0.052-1.3,1.934-2.231,2.6-6.563,2.337-3.9-.225-6.845,1.572-9.958,3.48C143.566,118.858,140.069,121,135,121a1,1,0,1,1,0-2c4.5,0,7.753-1.992,10.9-3.919,3.24-1.986,6.591-4.038,11.128-3.772,2.664,0.157,3.527,0,4.159-.642a17.311,17.311,0,0,1-2.641-.721,1,1,0,1,1,.694-1.875,15.689,15.689,0,0,0,10.508.091c3.686-2.674,5.909-6.239,5.416-8.638l0,0a1.563,1.563,0,0,0-.893-0.557,3.921,3.921,0,0,0-.47.028,4.358,4.358,0,0,1-1.008.011l-0.316-.048a5.9,5.9,0,0,1-4.284-2.262A8.5,8.5,0,0,1,167,94.238a26.455,26.455,0,0,0-2.011-4.322,23.4,23.4,0,0,1-9.47,5.6,1.007,1.007,0,0,1-1.1-.375,26.115,26.115,0,0,1-3.056-4.849l-0.164-.348a1,1,0,0,1,.462-1.336,1.008,1.008,0,0,1,1.343.46l0.183,0.39a21.712,21.712,0,0,0,2.441,3.929A22.216,22.216,0,0,0,168.5,81.6c-3.629.618-10.109,2.543-11.321,3.348a1.01,1.01,0,0,1-1.072.026c-0.026-.016-2.684-1.594-4.152-2.219a1,1,0,1,1,.789-1.837,43.3,43.3,0,0,1,3.9,2.05,54.774,54.774,0,0,1,13.288-3.552,0.976,0.976,0,0,1,.827.367,1,1,0,0,1,.194.882,20.326,20.326,0,0,1-4.542,7.766,25.955,25.955,0,0,1,2.467,5.089,11.893,11.893,0,0,0,.794,1.827,3.987,3.987,0,0,0,3.1,1.634l0.324,0.05c0.082,0.007.363-.014,0.53-0.029a4.408,4.408,0,0,1,.919-0.015,3.468,3.468,0,0,1,2,1.088l0.195,0.181a1,1,0,0,1,.288.458C177.987,101.973,175.431,106.557,170.809,109.864Zm-13.762-28.2a1,1,0,1,1-1-1.733,14.887,14.887,0,0,0,3.8-3.579,42.791,42.791,0,0,0-12.6,3.6,1.008,1.008,0,0,1-.835-0.015c-3.525-1.684-7.52-1.9-10.608-1.9a1,1,0,1,1,0-2,27.155,27.155,0,0,1,11.055,1.9c5.053-2.171,7.951-2.918,14.9-3.891a1.009,1.009,0,0,1,.955.406,1,1,0,0,1,.083,1.031A17.893,17.893,0,0,1,157.047,81.662Z" transform="translate(-134 -74.063)"/>
</svg>
