<svg xmlns="http://www.w3.org/2000/svg" width="45.844" height="40.219" viewBox="0 0 45.844 40.219">
  <defs>
    <style>
      .cls-1 {
        fill: #212121;
        fill-rule: evenodd;
      }
    </style>
  </defs>
  <path id="_6.svg" data-name="6.svg" class="cls-1" d="M240.872,122.092c-0.094.775-.667,2.177-3.458,2.861-5.292,1.294-8.673-.5-11.392-1.939a9.446,9.446,0,0,0-3.422-1.339,12.3,12.3,0,0,1-5.164-1.682,5.307,5.307,0,0,0-3.259.573,1.243,1.243,0,0,0-.486.913c-0.186,1.862,2.634,3.592,6.2,5.783,4.485,2.753,10.066,6.179,14.018,12.174a0.987,0.987,0,0,1-.291,1.373,1.008,1.008,0,0,1-1.385-.288c-3.708-5.627-9.08-8.924-13.4-11.573-4.162-2.555-7.449-4.573-7.14-7.664a3.219,3.219,0,0,1,1.242-2.278A6.9,6.9,0,0,1,217.4,118c0.228-.217.482-0.442,0.745-0.676,1.246-1.106,2.8-2.482,2.854-4.018,0.071-1.882,1.519-2.671,2.477-3.193a4.131,4.131,0,0,0,.756-0.477c-0.136-.261-0.279-0.569-0.44-0.933-0.8-1.8-2.009-4.523-5.295-5.36-5.733-1.461-10.62-.861-17.262,6.61-6.853,7.707-3.943,13.667-1.129,19.429L200.6,130.4a0.995,0.995,0,0,1-.9,1.418,1,1,0,0,1-.9-0.564l-0.489-1c-2.808-5.751-6.3-12.908,1.429-21.6s13.823-8.6,19.262-7.22c4.228,1.077,5.789,4.593,6.628,6.482,0.131,0.3.246,0.547,0.356,0.762,0.861,0.693,1.9,1.62,2.994,2.608,2.568,2.308,5.763,5.181,8.413,6.549C240.5,119.429,241,121.031,240.872,122.092Zm-4.411-2.511c-2.879-1.486-6.181-4.454-8.833-6.838-0.687-.617-1.351-1.214-1.953-1.736a5.271,5.271,0,0,1-1.236.844c-0.96.523-1.415,0.845-1.441,1.528-0.088,2.378-2.071,4.138-3.519,5.423l-0.012.01a9.514,9.514,0,0,0,3.26.884,10.868,10.868,0,0,1,4.239,1.57c2.543,1.348,5.425,2.877,9.967,1.762,1.288-.316,1.908-0.816,1.951-1.171S238.466,120.616,236.461,119.581Zm-8.789-2.556a1,1,0,0,1-.564-0.173l-1.8-1.223a0.985,0.985,0,0,1-.261-1.378,1.006,1.006,0,0,1,1.39-.259l1.805,1.223a0.986,0.986,0,0,1,.261,1.378A1,1,0,0,1,227.672,117.025Z" transform="translate(-195.031 -100.75)"/>
</svg>
