<svg xmlns="http://www.w3.org/2000/svg" width="39" height="28" viewBox="0 0 39 28" id="svg-1">
  <defs id="defs-2">
    <style id="style-3">
	.cls-1 { fill-rule: evenodd; }
</style>
  </defs>
  <path id="mail.svg" class="cls-1" d="M2182.06,347h-31.12a3.929,3.929,0,0,1-3.94-3.9V322.9a3.929,3.929,0,0,1,3.94-3.9h31.12a3.929,3.929,0,0,1,3.94,3.9V343.1A3.929,3.929,0,0,1,2182.06,347Zm-2.88-3.316-7.2-9.118-4.15,4.62c-0.01,0-.01,0-0.01,0a0.867,0.867,0,0,1-.11.108l-0.03.033c-0.04.032-.08,0.062-0.12,0.091a0.216,0.216,0,0,1-.05.037c-0.03.019-.06,0.038-0.09,0.055l-0.06.032q-0.045.024-.09,0.045l-0.06.025q-0.045.019-.09,0.036l-0.06.019c-0.04.01-.07,0.019-0.11,0.027a0.251,0.251,0,0,1-.05.013q-0.06.011-.12,0.018l-0.04.006c-0.06,0-.11.008-0.17,0.008h0c-0.05,0-.1,0-0.16-0.008l-0.04-.006c-0.04,0-.08-0.01-0.12-0.018-0.02,0-.03-0.008-0.05-0.012-0.04-.008-0.07-0.016-0.11-0.027-0.02,0-.03-0.012-0.05-0.018a0.713,0.713,0,0,1-.1-0.036l-0.06-.025c-0.03-.013-0.06-0.028-0.09-0.044s-0.04-.02-0.06-0.032a0.385,0.385,0,0,1-.08-0.054c-0.02-.012-0.04-0.023-0.06-0.036-0.04-.029-0.08-0.061-0.12-0.094a0.164,0.164,0,0,0-.04-0.038c-0.03-.031-0.07-0.063-0.1-0.1v0l-4.12-4.53-7.07,9.02h25.04Zm-28.81-20.921v0a0.685,0.685,0,0,0-.02.145v20.2l8.58-10.947Zm4.1-.447,7.61,8.356c0.03,0.019.06,0.038,0.09,0.06a1.72,1.72,0,0,1,.45.53l3.95,4.337,11.93-13.283h-24.03Zm28.15,0.4-8.38,9.33,8.41,10.653V322.9A0.581,0.581,0,0,0,2182.62,322.718Z" transform="translate(-2147 -319)" fill="#f5297b" fill-opacity="1" type="solidColor"/>
</svg>