<svg xmlns="http://www.w3.org/2000/svg" width="36.031" height="34.969" viewBox="0 0 36.031 34.969" id="svg-1">
  <defs id="defs-2">
    <style id="style-3">
	.cls-1 { fill-rule: evenodd; }
</style>
  </defs>
  <path id="tel2.svg" class="cls-1" d="M510.418,515.984c-6.909,0-14.051-3.088-19.6-8.47l-0.112-.115h0c-5.754-5.628-8.89-12.7-8.72-19.515l0.012-.5,0.321-.394a18.653,18.653,0,0,1,1.5-1.653,18.992,18.992,0,0,1,6.578-4.157,2.882,2.882,0,0,1,1.013-.172c0.836,0,2.715.413,3.2,1.691,0.846,2.283,1.916,5.261,2.694,8.11,0.216,0.8,0,2.732-1.148,3.436l-2.742,1.688a1.964,1.964,0,0,0,.369.912,35.006,35.006,0,0,0,7.924,7.686,1.579,1.579,0,0,0,.858.316l0.948-1.285,0.876-1.337c0.757-1.144,2.663-1.176,2.876-1.176a2.789,2.789,0,0,1,.6.059,39.865,39.865,0,0,1,8.521,2.669,3.528,3.528,0,0,1,1.451,4.048,18.261,18.261,0,0,1-4.272,6.375,19.136,19.136,0,0,1-1.713,1.463l-0.4.307-1.037.018h0Zm-25.33-27.526c0.025,5.815,2.922,12.066,7.819,16.821l0.148,0.147a25.551,25.551,0,0,0,17.293,7.546c0.361-.292.707-0.6,1.031-0.908a15.32,15.32,0,0,0,3.572-5.336c-0.015-.011-0.075-0.195-0.142-0.342a37.178,37.178,0,0,0-7.618-2.344,3.163,3.163,0,0,0-.364.075l-1.56,2.387c-0.967,1.523-3.54,1.77-5.388.455a40.866,40.866,0,0,1-4.624-3.824,41.308,41.308,0,0,1-3.976-4.518,4.172,4.172,0,0,1-.851-3.294,2.9,2.9,0,0,1,1.339-1.945l2.451-1.51a1.545,1.545,0,0,0,.064-0.416c-0.682-2.465-1.648-5.186-2.445-7.35a1.445,1.445,0,0,0-.421-0.087,15.906,15.906,0,0,0-5.394,3.446c-0.315.307-.624,0.635-0.934,1h0Z" transform="translate(-482 -481)" fill="#f5297b" fill-opacity="1" type="solidColor"/>
</svg>