<svg xmlns="http://www.w3.org/2000/svg" width="38" height="35" viewBox="0 0 19 15" id="svg-1"><defs id="defs-2"><style id="style-3">
	.cls-1 { fill-rule: evenodd; }
</style></defs><path id="Zapyata.svg" class="cls-1" d="M482.455 366.564A4.075 4.075.0 0 0 485.748 368a3.775 3.775.0 0 0 2.526-.863 3.114 3.114.0 0 0 1.018-2.515 4.338 4.338.0 0 0-.264-1.629 3.31 3.31.0 0 0-.67-1.066 4.39 4.39.0 0 0-.862-.695q-.456-.274-.862-.539a3.4 3.4.0 0 1-.671-.551 1.087 1.087.0 0 1-.263-.766 2.721 2.721.0 0 1 .275-1.258 3.1 3.1.0 0 1 .814-.982 6.467 6.467.0 0 1 1.353-.827q.815-.382 1.868-.766v-2.54a16.172 16.172.0 0 0-4.059 1.641 10.512 10.512.0 0 0-2.706 2.24 8.166 8.166.0 0 0-1.52 2.707 9.617 9.617.0 0 0-.479 3.019A5.951 5.951.0 0 0 482.455 366.564zm-10.249.0A4.072 4.072.0 0 0 475.5 368a3.775 3.775.0 0 0 2.527-.863 3.113 3.113.0 0 0 1.017-2.515 4.36 4.36.0 0 0-.263-1.629 3.3 3.3.0 0 0-.671-1.066 4.361 4.361.0 0 0-.862-.695q-.454-.274-.862-.539a3.389 3.389.0 0 1-.67-.551 1.087 1.087.0 0 1-.264-.766 2.722 2.722.0 0 1 .276-1.258 3.1 3.1.0 0 1 .814-.982 6.544 6.544.0 0 1 1.341-.827 19.721 19.721.0 0 1 1.88-.766v-2.54a16.141 16.141.0 0 0-4.059 1.641 10.5 10.5.0 0 0-2.706 2.24 8.151 8.151.0 0 0-1.521 2.707 9.646 9.646.0 0 0-.479 3.019A5.945 5.945.0 0 0 472.206 366.564z" transform="translate(-471 -353)" fill="#dddddd" fill-opacity="1" type="solidColor"></path></svg>