<svg xmlns="http://www.w3.org/2000/svg" id="telegram.svg" width="400" height="399.125" viewBox="0 0 400 399.125"><defs id="defs-2"><style id="style-3">
	.cls-1, .cls-2 { fill-rule: evenodd; }
</style></defs><path id="Rectangle_1_copy_15" data-name="Rectangle 1 copy 15" class="cls-1" d="M1738 565h4e2V964.121H1738V565z" transform="translate(-1738 -565)" fill-opacity="0" type="solidColor" fill="#000000"></path><path id="telegram" class="cls-2" d="M2023.79 680.378l-179.28 67.8c-9.81 2.829-9.49 12.5-2.24 14.828l44.92 14 17.19 52.632c2.09 5.761 3.8 7.931 7.36 7.979 3.75.052 5.19-1.316 9.08-4.755 4.56-4.277 11.51-11.009 22.49-21.667l46.72 34.482c8.6 4.737 14.81 2.283 16.95-7.976l29.29-144.732C2039.41 680.4 2032.02 676.648 2023.79 680.378zm-129.55 93.414 102.13-64c5.03-3.371 6.61.39 4.34 2.988l-84.76 76.151-4.35 38.008z" transform="translate(-1738 -565)" fill-opacity="1" type="solidColor" fill="#141414"></path></svg>