<svg xmlns="http://www.w3.org/2000/svg" id="VK.svg" width="400" height="399.13" viewBox="0 0 400 399.13"><defs id="defs-2"><style id="style-3">
	.cls-1, .cls-2 { fill-rule: evenodd; }
</style></defs><path id="Rectangle_1_copy_12" data-name="Rectangle 1 copy 12" class="cls-1" d="M450 993H850v399.12H450V993z" transform="translate(-450 -993)" fill-opacity="0"/><path id="VK" class="cls-2" d="M646.861 1248.54h11.955s3.61-.4 5.456-2.39c1.7-1.82 1.643-5.24 1.643-5.24s-.233-16.03 7.21-18.4c7.341-2.32 16.766 15.5 26.754 22.35 7.555 5.18 13.294 4.05 13.294 4.05l26.712-.37s13.973-.87 7.347-11.84c-.544-.9-3.86-8.12-19.862-22.97-16.75-15.53-14.5-13.02 5.67-39.89 12.287-16.37 17.2-26.35 15.664-30.63-1.462-4.08-10.5-3-10.5-3l-30.075.18a6.838 6.838.0 0 0-3.883.69 8.41 8.41.0 0 0-2.653 3.22 174.249 174.249.0 0 1-11.109 23.44c-13.391 22.72-18.748 23.92-20.936 22.51-5.093-3.29-3.82-13.21-3.82-20.26.0-22.03 3.343-31.21-6.51-33.58-3.268-.79-5.676-1.31-14.038-1.4-10.731-.11-19.813.03-24.955 2.55-3.421 1.68-6.062 5.41-4.453 5.62 1.988.27 6.488 1.22 8.875 4.46 3.084 4.19 2.975 13.6 2.975 13.6s1.771 25.92-4.136 29.14c-4.053 2.21-9.614-2.3-21.555-22.91a191.528 191.528.0 0 1-10.735-22.24 8.949 8.949.0 0 0-2.479-3.35 12.479 12.479.0 0 0-4.619-1.86l-28.581.19s-4.289.12-5.864 1.98c-1.4 1.66-.112 5.09-.112 5.09s22.372 52.31 47.708 78.67c23.235 24.17 49.612 22.59 49.612 22.59h0z" transform="translate(-450 -993)" fill-opacity="0.7" type="solidColor" fill="#141414"/></svg>