<svg id="viber1.svg" xmlns="http://www.w3.org/2000/svg" width="400" height="399.125" viewBox="0 0 400 399.125"><defs><style>.cls-1{fill-opacity:0}.cls-1,.cls-2{fill-rule:evenodd}</style></defs><path id="Rectangle_1_copy_13" data-name="Rectangle 1 copy 13" class="cls-1" d="M2597 565h4e2V964.121H2597V565z" transform="translate(-2597 -565)"/><path id="viber1" class="cls-2" d="M2797.8 663.99a97.5 97.5.0 0 0-83.24 147.749l-17.55 52.276 53.81-17.27A97.37 97.37.0 1 0 2797.8 663.99zm0 16.32a81.112 81.112.0 0 0-65.5 128.676l-10.11 30.12 31.1-9.978a80.294 80.294.0 0 0 44.51 13.411A81.115 81.115.0 0 0 2797.8 680.31zm50.21 106.338c-.58-1.06-2.21-1.747-4.64-3.082s-14.41-7.813-16.65-8.728-3.88-1.389-5.63 1.039-6.71 7.845-8.22 9.452-2.96 1.756-5.4.415-10.33-4.263-19.49-13.089a75.188 75.188.0 0 1-13.16-17.741c-1.35-2.545-.01-3.842 1.28-5.033 1.16-1.075 2.59-2.814 3.89-4.219a16.77 16.77.0 0 0 2.63-4.053 4.6 4.6.0 0 0-.04-4.365c-.58-1.264-5.08-13.692-6.96-18.748s-3.98-4.3-5.43-4.361-3.09-.323-4.74-.384a9.125 9.125.0 0 0-6.74 2.861c-2.36 2.4-9 8.179-9.45 20.42s7.99 24.395 9.16 26.1 16.13 28.235 40.98 39.144 24.98 7.581 29.54 7.336 14.9-5.468 17.19-11.194S2848.59 787.709 2848.01 786.648z" transform="translate(-2597 -565)"/></svg>