<svg xmlns="http://www.w3.org/2000/svg" width="45.625" height="46" viewBox="0 0 45.625 46">
  <defs>
    <style>
      .cls-1 {
        fill: #fff;
        fill-rule: evenodd;
      }
    </style>
  </defs>
  <path id="pr1.svg" class="cls-1" d="M72.727,53.994a4.463,4.463,0,0,1-2.537,3.329,4.571,4.571,0,0,1-3.731,6.44,4.582,4.582,0,0,1-5.717,4.78,4.591,4.591,0,0,1-7.012,2.544,4.6,4.6,0,0,1-7.461,0,4.591,4.591,0,0,1-7.012-2.544,4.582,4.582,0,0,1-5.717-4.78,4.571,4.571,0,0,1-3.731-6.44A4.563,4.563,0,0,1,28.513,50a4.564,4.564,0,0,1,1.3-7.323,4.571,4.571,0,0,1,3.731-6.44,4.582,4.582,0,0,1,5.717-4.78,4.592,4.592,0,0,1,7.012-2.543,4.595,4.595,0,0,1,7.461,0,4.592,4.592,0,0,1,7.012,2.543,4.582,4.582,0,0,1,5.717,4.78,4.571,4.571,0,0,1,3.731,6.44A4.563,4.563,0,0,1,71.486,50,4.454,4.454,0,0,1,72.727,53.994Zm-1.979-7.64a2.513,2.513,0,0,0-2-2.056L68.41,44.23a1,1,0,0,1-.585-1.6l0.212-.267a2.553,2.553,0,0,0-2.381-4.107l-0.338.049a1,1,0,0,1-1.1-1.308l0.108-.322a2.506,2.506,0,0,0-.785-2.756,2.532,2.532,0,0,0-2.863-.291l-0.3.161a1,1,0,0,1-1.483-.852l-0.01-.34a2.561,2.561,0,0,0-4.472-1.622l-0.226.254a1.007,1.007,0,0,1-1.686-.3l-0.126-.316a2.563,2.563,0,0,0-4.759,0l-0.126.316a1.007,1.007,0,0,1-1.686.3l-0.227-.254a2.561,2.561,0,0,0-4.471,1.623l-0.01.34a1,1,0,0,1-1.483.852l-0.3-.162a2.558,2.558,0,0,0-3.646,3.05l0.107,0.32a1,1,0,0,1-1.1,1.308l-0.338-.049A2.532,2.532,0,0,0,31.754,39.5a2.5,2.5,0,0,0,.209,2.859l0.211,0.266a1,1,0,0,1-.585,1.6l-0.335.069a2.549,2.549,0,0,0-.825,4.671l0.29,0.178a1,1,0,0,1,0,1.706l-0.291.178a2.549,2.549,0,0,0,.826,4.671l0.334,0.068a1,1,0,0,1,.585,1.6l-0.212.267a2.553,2.553,0,0,0,2.381,4.107L34.68,61.7A1,1,0,0,1,35.779,63l-0.108.323a2.558,2.558,0,0,0,3.648,3.047l0.3-.162a1.006,1.006,0,0,1,1.482.853l0.01,0.339a2.561,2.561,0,0,0,4.472,1.622l0.227-.254a1.007,1.007,0,0,1,1.685.3l0.126,0.316a2.563,2.563,0,0,0,4.759,0L52.5,69.07a1.007,1.007,0,0,1,1.685-.3l0.227,0.254a2.561,2.561,0,0,0,4.472-1.622l0.01-.339a1.006,1.006,0,0,1,1.482-.853l0.3,0.161a2.557,2.557,0,0,0,3.647-3.048L64.22,63a1,1,0,0,1,1.1-1.307l0.338,0.049a2.552,2.552,0,0,0,2.38-4.107l-0.211-.266a1,1,0,0,1,.585-1.6l0.334-.068a2.549,2.549,0,0,0,.826-4.671l-0.29-.179a1,1,0,0,1,0-1.706l0.29-.178A2.506,2.506,0,0,0,70.748,46.354ZM60.624,58.068a3.158,3.158,0,0,1-2.9,2.982H46.671a3.593,3.593,0,0,1-3.205-1.493,0.858,0.858,0,0,0-.83-0.5h0l-4-.016V45.027h5.025a10.606,10.606,0,0,0,2.289-1.659c0.215-.24.426-0.469,0.63-0.69,1.268-1.372,2.105-2.279,2.105-3.988V37.814a1.862,1.862,0,0,1,1.3-1.807,2.694,2.694,0,0,1,2.942,1.024,6.15,6.15,0,0,1,1.414,4.506,8.419,8.419,0,0,1-.533,3.043,2.413,2.413,0,0,0-.1.308l0,2.568a8.072,8.072,0,0,1-5.319,7.608l-0.7-1.876A6.01,6.01,0,0,0,51.7,47.456v-2.63a2.683,2.683,0,0,1,.21-0.909,6.437,6.437,0,0,0,.419-2.38,4.232,4.232,0,0,0-.994-3.282,0.835,0.835,0,0,0-.64-0.363v0.8c0,2.491-1.281,3.877-2.636,5.345-0.208.226-.424,0.46-0.645,0.706l-0.078.078c-1.121,1.009-2.669,2.211-3.676,2.211H40.642V57.048l2,0.008h0a2.807,2.807,0,0,1,2.388,1.239,1.656,1.656,0,0,0,1.644.752H57.725a1.229,1.229,0,0,0,.891-1.073l0.014-.165,1.4-8.337a1.953,1.953,0,0,0-.483-1.572,2.431,2.431,0,0,0-1.819-.871H54.71v-2h3.015a4.466,4.466,0,0,1,3.352,1.58,3.94,3.94,0,0,1,.931,3.2Z" transform="translate(-27.188 -27)"/>
</svg>
