<svg xmlns="http://www.w3.org/2000/svg" width="48.157" height="54.78" viewBox="0 0 48.157 54.78" id="svg-1">
  <defs id="defs-2">
    <style id="style-3">
	.cls-1 { fill-rule: evenodd; }
</style>
  </defs>
  <path id="_41.svg" data-name="41.svg" class="cls-1" d="M839.875,4713.04a1.12,1.12,0,0,1-.831.4H839a1.173,1.173,0,0,1-.815-0.33l-5.765-5.71,1.631-1.61,4.882,4.83,11.872-13.75,1.753,1.48Zm1.43-12.01v-18.26h-1.153v-2.28h3.458v20.54h-2.305Zm4.611-21.68a1.155,1.155,0,0,0-1.153-1.15h-4.611v-2.28h4.611a3.45,3.45,0,0,1,3.459,3.43v17.12h-2.306v-17.12Zm-32.28,0a4.6,4.6,0,0,1,4.611-4.57h2.422a5.776,5.776,0,0,1,11.3,0h2.421a4.6,4.6,0,0,1,4.612,4.57v4.56H813.636v-4.56Zm2.306,2.28h20.751v-2.28a2.3,2.3,0,0,0-2.306-2.29h-4.611v-1.14a3.459,3.459,0,0,0-6.917,0v1.14h-4.612a2.3,2.3,0,0,0-2.3,2.29v2.28Zm11.528-4.57h-2.306v-2.28h2.306v2.28Zm-5.764,36.53a1.146,1.146,0,0,1-1.153,1.14h-5.764a1.146,1.146,0,0,1-1.153-1.14v-5.71a1.146,1.146,0,0,1,1.153-1.14h5.764a1.146,1.146,0,0,1,1.153,1.14v5.71Zm-2.306-4.57h-3.458v3.42H819.4v-3.42Zm1.153-14.84h-5.764a1.146,1.146,0,0,1-1.153-1.14v-5.71a1.146,1.146,0,0,1,1.153-1.14h5.764a1.146,1.146,0,0,1,1.153,1.14v5.71A1.146,1.146,0,0,1,820.553,4694.18Zm-1.153-5.7h-3.458v3.42H819.4v-3.42Zm2.306,14.83a1.155,1.155,0,0,1-1.153,1.15h-5.764a1.155,1.155,0,0,1-1.153-1.15v-5.7a1.146,1.146,0,0,1,1.153-1.14h5.764a1.146,1.146,0,0,1,1.153,1.14v5.7Zm-2.306-4.56h-3.458v3.42H819.4v-3.42Zm5.764,12.55h6.918v2.29h-6.918v-2.29Zm0-2.28v-2.28h3.459v2.28h-3.459Zm0-7.99h6.918v2.28h-6.918v-2.28Zm11.529-2.28H825.164v-2.28h11.529v2.28Zm-11.529-4.57v-2.28h6.918v2.28h-6.918Zm0-6.85h11.529v2.29H825.164v-2.29Zm-13.834,30.82h29.975v-4.56h2.305v6.84H809.024v-39.94h3.459v2.28H811.33v35.38Zm-4.611-38.8v42.23a1.147,1.147,0,0,0,1.153,1.14h36.891a1.147,1.147,0,0,0,1.153-1.14v-12.56h2.306v12.56a3.447,3.447,0,0,1-3.459,3.42H807.872a3.447,3.447,0,0,1-3.459-3.42v-42.23a3.449,3.449,0,0,1,3.459-3.43h4.611v2.28h-4.611A1.155,1.155,0,0,0,806.719,4679.35Z" transform="translate(-804.406 -4670.22)" fill="#ffffff" fill-opacity="1" type="solidColor"></path>
</svg>