<svg xmlns="http://www.w3.org/2000/svg" width="44" height="42.969" viewBox="0 0 44 42.969">
  <defs>
    <style>
      .cls-1 {
        fill: #fff;
        fill-rule: evenodd;
      }
    </style>
  </defs>
  <path id="pr4.svg" class="cls-1" d="M71.356,62.939l-21,8a1,1,0,0,1-.712,0l-21-8A1,1,0,0,1,28,62.005V37.018a1,1,0,0,1,.644-0.934l21-8a0.994,0.994,0,0,1,.712,0l21,8a1,1,0,0,1,.644.934V62.005A1,1,0,0,1,71.356,62.939ZM30,61.316l19,7.235V45.7L30,38.468V61.316Zm1.81-24.3L50,43.944l7.414-2.823-18.19-6.926ZM50,30.092l-7.967,3.034,18.191,6.926,7.967-3.034Zm20,8.377L51,45.7V68.551l19-7.235V38.468Zm-13.565,12.1-0.571,1.915-0.384-.114L54.252,56.5l8.419,2.5L63.9,54.872l-0.843-.251,0.57-1.915,2.759,0.821-2.367,7.966L51.766,57.846l2.366-7.967Zm-0.38-4.017,10.733-3.67,2.4,7.049L58.46,53.6Zm3.652,4.51,6.948-2.377-1.114-3.264-6.948,2.376ZM42,55.166a1,1,0,0,1-.814-0.418L41,54.487v2.521a1,1,0,0,1-2,0V53.155l-0.476.288a1,1,0,0,1-1.037-1.71l2.79-1.691,2.536,3.542A1,1,0,0,1,42,55.166ZM36.01,52.8a1,1,0,0,1-.814-0.418L35,52.107v2.9a1,1,0,0,1-2,0V50.794l-0.466.283a1,1,0,0,1-1.037-1.71l2.789-1.69,2.536,3.54A1,1,0,0,1,36.01,52.8Zm-3.643,4.49,9.985,3.944a1,1,0,1,1-.735,1.858l-9.985-3.944A1,1,0,1,1,32.368,57.289Z" transform="translate(-28 -28.031)"/>
</svg>
