<svg xmlns="http://www.w3.org/2000/svg" width="48" height="33" viewBox="0 0 48 33">
  <defs>
    <style>
      .cls-1 {
        fill: #fff;
        fill-rule: evenodd;
      }
    </style>
  </defs>
  <path id="pr2.svg" class="cls-1" d="M71,62H70s0,0.006,0,.009a5.009,5.009,0,0,1-10.018,0s0-.006,0-0.009H41.017s0,0.006,0,.009a5.009,5.009,0,0,1-10.018,0S31,62,31,62H26V34H60v8h4.943a3,3,0,0,1,2.478,1.309L70.588,49H71a2.944,2.944,0,0,1,3,3.209V59A3,3,0,0,1,71,62ZM36.009,65A2.991,2.991,0,1,0,33,62.009,3,3,0,0,0,36.009,65ZM58,36H28V60h3.431a5,5,0,0,1,9.155,0H58V36Zm6.991,29a2.991,2.991,0,1,0-3.009-2.991A3,3,0,0,0,64.991,65ZM72,52.209A0.99,0.99,0,0,0,71,51H69.412l-3.69-6.642A0.993,0.993,0,0,0,64.943,44H60V60h0.425a5,5,0,0,1,9.144,0H71a1,1,0,0,0,1-1V52.209ZM61,50h3.8l-1.632-2.447,1.664-1.109L67,49.694V52H61V50ZM39,53H37V41h4a2,2,0,0,1,2,2v3a2,2,0,0,1-2,2H40.768L43,51.72V53H41V52.274l-2-3.333V53Zm2-10-2,0v3h2V43Zm8,0H46v3h2v2H46v3h3v2H44V41h5v2Zm6,0H52v3h2v2H52v3h3v2H50V41h5v2ZM33,46h2v2H33v5H31V41h5v2H33v3Z" transform="translate(-26 -34)"/>
</svg>
