<svg xmlns="http://www.w3.org/2000/svg" width="48.219" height="38" viewBox="0 0 48.219 38">
  <defs>
    <style>
      .cls-1 {
        fill: #fff;
        fill-rule: evenodd;
      }
    </style>
  </defs>
  <path id="pr3.svg" class="cls-1" d="M41.565,51V50a3.009,3.009,0,0,1,3.011-3h1a3.009,3.009,0,0,1,3.011,3v1a3.009,3.009,0,0,1-3.011,3h-1A3.009,3.009,0,0,1,41.565,51Zm5.017,0V50a1,1,0,0,0-1-1h-1a1,1,0,0,0-1,1v1a1,1,0,0,0,1,1h1A1,1,0,0,0,46.582,51Zm8.028,3a3.009,3.009,0,0,1,3.011,3v1a3.009,3.009,0,0,1-3.011,3h-1A3.009,3.009,0,0,1,50.6,58V57a3.009,3.009,0,0,1,3.011-3h1ZM52.6,57v1a1,1,0,0,0,1,1h1a1,1,0,0,0,1-1V57a1,1,0,0,0-1-1h-1A1,1,0,0,0,52.6,57Zm-7.955,3.5,8.028-14L54.419,47.5l-8.028,14Zm29.07-5.19-0.395.394A1,1,0,0,1,71.9,54.293L72.3,53.9a1.272,1.272,0,0,0,0-1.8,1.286,1.286,0,0,0-1.67-.118l-2.062,1.542C68.574,53.684,68.6,53.84,68.6,54c0,3.107-1.4,5.986-4.148,8.56-0.3.9-1.388,4.122-1.923,5.751a1,1,0,0,1-.953.689H58.565a1,1,0,0,1-.952-0.684L56.928,66.27A21.863,21.863,0,0,1,50.537,67a35.432,35.432,0,0,1-7.374-.777c-0.171.524-.407,1.245-0.68,2.085a1,1,0,0,1-.955.692H38.495a1,1,0,0,1-1-.947,21.153,21.153,0,0,0-.852-4.406L36.558,63.6c-5.3-3.281-8.129-5.459-8.9-6.856-1.08-1.959-1.653-5.032-.784-6.486a1.613,1.613,0,0,1,1.494-.873,9,9,0,0,0,2.7-.334,7.641,7.641,0,0,1,2.087-3.294c-1.337-2.227-2.184-3.922-1.593-5.177a2.251,2.251,0,0,1,2.083-1c2.262-.161,6.622.746,8.695,3.878a1,1,0,0,1-1.676,1.1c-1.847-2.791-6.123-3.193-7.291-2.939a15.146,15.146,0,0,0,1.779,3.567l0.185,0.3a1,1,0,0,1-.313,1.356,5.54,5.54,0,0,0-2.17,3.23,1,1,0,0,1-.56.648,9.221,9.221,0,0,1-3.748.663,7.107,7.107,0,0,0,.868,4.4c0.264,0.478,1.59,2.031,8.2,6.121,0.276,0.171.445,0.28,0.478,0.3a1,1,0,0,1,.351.489A25.63,25.63,0,0,1,39.413,67H40.8c0.452-1.389.758-2.312,0.758-2.312a1,1,0,0,1,1.272-.636A29.893,29.893,0,0,0,50.537,65a17.953,17.953,0,0,0,6.667-.935,1.01,1.01,0,0,1,.787.031,1,1,0,0,1,.522.587L59.288,67h1.561c0.683-2.061,1.782-5.318,1.782-5.318a1,1,0,0,1,.275-0.42c2.446-2.225,3.687-4.667,3.687-7.261,0-6.617-7.653-12-17.06-12a23.429,23.429,0,0,0-5.772.709,1,1,0,1,1-.5-1.937A25.438,25.438,0,0,1,49.533,40c9.243,0,16.966,4.856,18.7,11.275l1.194-.893a3.309,3.309,0,0,1,4.293.3A3.268,3.268,0,0,1,73.718,55.314ZM55.221,38.6a4.014,4.014,0,1,0-7.361,0l-1.838.8a5.939,5.939,0,0,1-.5-2.4,6.021,6.021,0,0,1,12.042,0,5.933,5.933,0,0,1-.5,2.4Z" transform="translate(-26.469 -31)"/>
</svg>
