<svg xmlns="http://www.w3.org/2000/svg" width="52.75" height="53.62" viewBox="0 0 52.75 53.62" id="svg-1">
  <defs id="defs-2">
    <style id="style-3">
	.cls-1 { fill-rule: evenodd; }
</style>
  </defs>
  <path id="_21.svg" data-name="21.svg" class="cls-1" d="M854.492,4706.68c-1.509,2.05-8.11,9.58-9.334,10.44-1.374.96-12.5,4.46-15.4,4.46h-16.11v2.28H802.137v-21.69h11.506v3.43h0.672c0.247-.26.514-0.56,0.8-0.88a14.765,14.765,0,0,1,3.1-2.89l0.153-.07c1.982-.8,5.355-1.85,8.331-2.78,1.989-.62,3.706-1.15,4.4-1.43,2.391-.94,4.131-0.88,5.17.19,0.948,0.97,1.035,2.56.241,4.37-1.1,2.5-3.681,3.43-5.222,3.99a7.505,7.505,0,0,0-.8.32c-0.289.14-.538,0.27-0.752,0.37-0.152.08-.315,0.16-0.443,0.22a5.792,5.792,0,0,0,1.393,1.4c1.83,0.47,3.756,1.04,4.792,1.35,0.2,0.06.366,0.11,0.491,0.15l6.98-1.56c2.4-3.27,4.528-5.03,6.32-5.24,2.839-.33,4.772,1.05,5.358,2.46l0.245,0.59Zm-43.15-2.22h-6.9v17.12h6.9v-17.12Zm38.191,0.92c-0.408.05-1.961,0.51-4.839,4.47a2.182,2.182,0,0,1-.3.36l-0.225.2-8.235,1.85-0.252-.06c-0.079-.02-0.395-0.11-0.875-0.25-1.019-.31-2.917-0.88-4.723-1.34-1.232-.32-3.222-2.61-3.222-3.48,0-1.48.816-1.88,1.849-2.38,0.2-.1.437-0.22,0.71-0.36a10.858,10.858,0,0,1,1.08-.43c1.347-.49,3.191-1.16,3.9-2.77a2.081,2.081,0,0,0,.214-1.87c-0.171-.17-0.947-0.32-2.667.35-0.775.31-2.529,0.86-4.562,1.49-2.748.86-6.158,1.92-8.071,2.68a14.128,14.128,0,0,0-2.484,2.39c-0.443.5-.862,0.97-1.245,1.33l-0.334.32h-1.612v11.41h16.11c2.538,0,13.038-3.37,14.083-4.04a121.622,121.622,0,0,0,8.295-9.26A3.458,3.458,0,0,0,849.533,4705.38Zm-40.492,4.78h-2.3v-3.42h2.3v3.42Zm35.67-21.68a5.705,5.705,0,1,1-5.752,5.7A5.735,5.735,0,0,1,844.711,4688.48Zm0,9.13a3.425,3.425,0,1,0-3.451-3.43A3.446,3.446,0,0,0,844.711,4697.61Zm1.153-15.98a5.71,5.71,0,1,1,5.753-5.71A5.737,5.737,0,0,1,845.864,4681.63Zm0-9.13a3.425,3.425,0,1,0,3.451,3.42A3.438,3.438,0,0,0,845.864,4672.5ZM830.9,4691.9a5.705,5.705,0,1,1,5.753-5.71A5.737,5.737,0,0,1,830.9,4691.9Zm0-9.13a3.425,3.425,0,1,0,3.452,3.42A3.443,3.443,0,0,0,830.9,4682.77Z" transform="translate(-802.125 -4670.22)" fill="#ffffff" fill-opacity="1" type="solidColor"></path>
</svg>